<svg id="Layer_1" data-name="Layer 1" xmlns="http://www.w3.org/2000/svg" viewBox="0 0 336 215.9"><path d="M103,464c86.4-21.2,173.2-42.2,258.2-68.4,14.1-4.5,28.2-9.1,41.9-14.4,8.3-3.4,16.6-6.7,23.8-11.7l1.7-1.4a5.8,5.8,0,0,0,.9-1c0-.1,0-.1-.1.1v.6c-.7-4.9-4.6-7.3-9.6-7.9-9.9-1-19.6,3.2-28.1,8.5-17.7,11.3-30.6,29.8-38.4,49.3-16.3,41.6-28.2,87.5-59.9,120.9-23.6,24.9-54.6,32.2-87.5,23.4-23.9-6.4-45.3-17.1-56.8-40.2-20.4-41.6-3.8-97.5,25.2-131.1,10.6-11.8,23.8-22.1,39.8-25.6,27.9-6.6,46.7,13.2,56.5,37,11.3,27.8,13.1,64.9-4.8,90.3A50,50,0,0,1,235.9,512c-8,1.7-16.2,2.1-24.2-.2-29.2-9.1-31.6-48.3-20.3-72.1,4.3-9,11.7-17.7,22-19.8s21.4.8,27.8,9.1,8.1,22.6,6,33.8-8.6,25.9-21.3,25.3a19.5,19.5,0,0,1-11.2-3.9c-6.4-5.2-7.5-14.2-5.9-21.7,1.1-4.6,3.1-9.7,7.5-12.1,2.8-1.1,6-.2,8.6,1,7.9,4.1,5.3,14.4-.2,19.4,7.2-7.3,6.6-19.3-5.4-19.7-5.3,0-7.7,7.4-8.6,11.8-2,11,2.8,22.2,15.3,22.1,7.2.3,11.6-6.7,14.2-12.6,4-9.8,5-21.3,1.9-31.3-2-6.5-6.3-12.3-12.7-14.6s-13.5-2.3-19.4.7c-12,7-16.6,22.3-17.8,35.6-1.6,27.2,12.4,48.2,41.7,40.9,33.5-7.7,39.5-48.5,33.4-77.3-4-18.9-13.3-42-32.1-49.9-12.5-4.5-26.2.3-36.9,7.7-17.3,12.2-29.2,31-37.1,50.5-12.3,31.2-15.7,73,10.7,97.6,10.1,9.4,24,14.3,37.1,17.9,20,5.5,42,4.5,59.8-6.8,41.9-27.2,56-85.8,74.2-129.9,8.9-21.6,23-41.3,43.1-54,10.3-6.3,22.5-11.1,35-9.5,8.6,1,16.6,7,17.8,16,1.1,7.2-6.4,11.4-11.6,14.4a183.4,183.4,0,0,1-21,9.2C307.6,423.1,204.9,443.1,103,464Z" transform="translate(-103 -349.7)"/></svg>